PathFileType	4	(X/Y/Z)	regression/subject04/trials/walk2/markers.trc
DataRate	CameraRate	NumFrames	NumMarkers	Units	OrigDataRate	OrigDataStartFrame	OrigNumFrames
199.9999999999954	199.9999999999954	4	64	m	199.9999999999954	167	223
Frame#	Time	CLAV			C7			RACR			RASH			RPSH			RLEL			RMEL			RUA1			RUA2			RUA3			RFAsuperior			RFAradius			RFAulna			RASI			RPSI			RCAL			RTOE			RMT5			RTH1			RTH2			RTH3			RTB1			RTB2			RTB3			RLFC			RMFC			RLMAL			RMMAL			RHJC			RKJC			REJC			RAJC			RSJC			LACR			LASH			LPSH			LLEL			LMEL			LUA1			LUA2			LUA3			LFAsuperior			LFAradius			LFAulna			LASI			LPSI			LCAL			LTOE			LMT5			LTH1			LTH2			LTH3			LTB1			LTB2			LTB3			LLFC			LMFC			LLMAL			LMMAL			LHJC			LKJC			LEJC			LAJC			LSJC			
		X1	Y1	Z1	X2	Y2	Z2	X3	Y3	Z3	X4	Y4	Z4	X5	Y5	Z5	X6	Y6	Z6	X7	Y7	Z7	X8	Y8	Z8	X9	Y9	Z9	X10	Y10	Z10	X11	Y11	Z11	X12	Y12	Z12	X13	Y13	Z13	X14	Y14	Z14	X15	Y15	Z15	X16	Y16	Z16	X17	Y17	Z17	X18	Y18	Z18	X19	Y19	Z19	X20	Y20	Z20	X21	Y21	Z21	X22	Y22	Z22	X23	Y23	Z23	X24	Y24	Z24	X25	Y25	Z25	X26	Y26	Z26	X27	Y27	Z27	X28	Y28	Z28	X29	Y29	Z29	X30	Y30	Z30	X31	Y31	Z31	X32	Y32	Z32	X33	Y33	Z33	X34	Y34	Z34	X35	Y35	Z35	X36	Y36	Z36	X37	Y37	Z37	X38	Y38	Z38	X39	Y39	Z39	X40	Y40	Z40	X41	Y41	Z41	X42	Y42	Z42	X43	Y43	Z43	X44	Y44	Z44	X45	Y45	Z45	X46	Y46	Z46	X47	Y47	Z47	X48	Y48	Z48	X49	Y49	Z49	X50	Y50	Z50	X51	Y51	Z51	X52	Y52	Z52	X53	Y53	Z53	X54	Y54	Z54	X55	Y55	Z55	X56	Y56	Z56	X57	Y57	Z57	X58	Y58	Z58	X59	Y59	Z59	X60	Y60	Z60	X61	Y61	Z61	X62	Y62	Z62	X63	Y63	Z63	X64	Y64	Z64	

168	2.245	2.292104921036663	1.457691484239184	-0.5038183596391085	2.180115970053036	1.540446156578395	-0.5096747687528781	2.253995175410159	1.51564897359085	-0.3567688890388662	2.293094197732759	1.451228951659479	-0.3078861795303445	2.193700034179944	1.47320092813382	-0.3119566219457846	2.181666152983388	1.176039496545664	-0.2279295247569734	2.163976871461891	1.162124568732757	-0.318156994499347	2.231579483514301	1.413357111332003	-0.281791455677175	2.186777912411963	1.260227640388139	-0.2608714993192664	2.24528945844779	1.320892786268301	-0.2691212242435659	2.222023124065822	1.085635054536792	-0.2793355191308636	2.309624865457433	0.9304171885401289	-0.2738158462702447	2.254133110232969	0.9041966458861166	-0.2568390755220353	2.265017506916871	1.005280349239123	-0.3625358033131407	2.103586680771415	1.042601907288305	-0.4598930579756828	1.941634304217844	0.2943282701613319	-0.3723530364109216	2.105956085638225	0.09609194911653732	-0.4252160257913196	2.03568146976453	0.1149976455977032	-0.3263875748188652	2.263990267693528	0.7840353895854799	-0.3316506264322184	2.365095708105355	0.7226162453507246	-0.3928507784366462	2.310043832214639	0.6306738024325547	-0.3193780295252812	2.209645909224149	0.3973496403834789	-0.3276121454752504	2.170204209008085	0.3151865836891828	-0.3902365869174788	2.097505491613287	0.2893891917018815	-0.323117654641948	2.337283137723291	0.5216549787618859	-0.3193996243342505	2.341374102037259	0.5097387232757569	-0.4376032814029349	2.003460087266137	0.2401234582982602	-0.3248639738400403	2.006938298692367	0.2367646097839525	-0.4260057148077908	2.191603971535269	0.9186274511397425	-0.4242340500906229	2.345836772795305	0.507244128063182	-0.3807932268467438	2.177514863131782	1.163165419517884	-0.2792929399990449	1.98744708401237	0.2409014814690213	-0.382788225807324	2.246533001816443	1.461521724038884	-0.3097929782798574	2.264787282574386	1.509103952058463	-0.6556257206893974	2.307206953255209	1.442670077347896	-0.6986989593810392	2.19986125661817	1.466399811940184	-0.7030950371897146	2.194945663733473	1.17537119371005	-0.8056572004079149	2.161664798497474	1.159131602550585	-0.7203566159467832	2.247990655728197	1.406920041380835	-0.7329697983245466	2.199048435090096	1.257760771825266	-0.7683199265203963	2.258569686817931	1.314338599235925	-0.7476296161377083	2.223849428476328	1.082159122086694	-0.7516962307526188	2.307432968027791	0.9246879451929441	-0.7479897267885612	2.254722748309813	0.9005204598354004	-0.7743075513334479	2.285067994002376	1.014723798300744	-0.6267704965869163	2.110610219808404	1.045909878453557	-0.5524525392102692	2.098967095132896	0.05780534873093684	-0.5716057874623224	2.358790180149676	0.05170613573235293	-0.5322542110017091	2.293435010879157	0.01216267643801552	-0.6283168280486494	2.244715600108328	0.7671238124419926	-0.6575434717370019	2.329529849305289	0.6926846995933628	-0.5867943263271167	2.255698604977403	0.6070448754950453	-0.6508031895481226	2.231751618276128	0.3208495595027249	-0.6255484709924485	2.257438638086263	0.2342708697848634	-0.5617319859180804	2.21935554674036	0.1656253231175157	-0.627253181651087	2.258118605168952	0.4954926064194724	-0.6374870711711443	2.259123783369104	0.4970352775944513	-0.5186281318326502	2.1816551206774	0.06643680777538952	-0.6233780692329189	2.18765757589069	0.06795272867351099	-0.5223102499267804	2.203662607668553	0.9243068700781288	-0.5831483949836038	2.261429953591912	0.4942943588678076	-0.5756578391606798	2.181556199259574	1.160821553083028	-0.756360083952635	2.169825480769106	0.05739189420979218	-0.5651501573910906	2.260645757338894	1.452962849727301	-0.7006057581305521	
169	2.25	2.297729836219267	1.458309539243484	-0.5037638649850109	2.185763243536273	1.541073675783845	-0.5099070148106517	2.259226086478356	1.516240293961646	-0.3568065276345053	2.298187793790591	1.45180755505	-0.3078310278333255	2.198806637711642	1.47378770594802	-0.3121663228546539	2.184790724417612	1.177180426154736	-0.2276423459578417	2.167658257374304	1.163094132150753	-0.3179506350964333	2.236247807890947	1.414094177028442	-0.2818285218921875	2.190546403278836	1.261247621315119	-0.260786367965923	2.249412696222471	1.32160020536537	-0.2688016071402814	2.225166175759091	1.086494911060138	-0.2785472219826728	2.312191927901496	0.9309912195806164	-0.2720481291090888	2.256499478410287	0.9050066104198444	-0.2553683912085379	2.271103856228745	1.00637942157049	-0.3629757794622626	2.109348695038217	1.043229731189059	-0.4599735519619008	1.955750713266459	0.2898955352502235	-0.3734737228669175	2.124499985230258	0.09523916007443459	-0.4256882925949647	2.053546717531606	0.1126935453263294	-0.3270780093806352	2.271305658694024	0.785644493646357	-0.3315729517155339	2.373304035997886	0.7254561422425904	-0.3925136880701266	2.31909632397197	0.6328161489201833	-0.3192899058980756	2.222093321088207	0.3976729787726545	-0.3279150486271091	2.184223656754872	0.3148753959176327	-0.3906739927218066	2.111806207858474	0.2878069111948784	-0.3237518719831893	2.347597742012346	0.524120462026094	-0.3193209828290223	2.352189862587952	0.5123580035277998	-0.437521637128967	2.018622630529232	0.2369395110197776	-0.3257590373746542	2.022415791537633	0.2336867405982387	-0.426892923872723	2.19764860574113	0.9194710680245057	-0.4242637052012705	2.356518355396901	0.5099066182898653	-0.380702333746827	2.180931725770111	1.164179751563024	-0.2789966649746264	2.002746452059612	0.237469715552336	-0.3837237369734893	2.251632691225407	1.462104156738177	-0.3098618967860668	2.270827368412505	1.509754538163169	-0.6556343341340085	2.313358700935247	1.443326182082761	-0.6986058517172914	2.206027052369982	1.467064745052622	-0.703287970340326	2.202182781843158	1.175877835873821	-0.8059521008561134	2.168635218290462	1.159545252546521	-0.7207738306058403	2.254381460853117	1.407551733571243	-0.7330507874912779	2.205943141477678	1.258273458973918	-0.7685921179127887	2.265246574034578	1.31499881782413	-0.747681463791638	2.231874499319583	1.083145649444025	-0.7516300844214008	2.317162326630531	0.9266138861989556	-0.7470571842632334	2.264742421875444	0.9017422058032505	-0.7732986704970867	2.290408346172449	1.015222299248613	-0.6272867971562192	2.116110916730416	1.046327326589447	-0.5525597690828689	2.099108358505863	0.05803107253880185	-0.5716301929100833	2.358936792822639	0.05165617095504491	-0.5323577111058382	2.293510904331711	0.01218666427239166	-0.6284026009993089	2.24877463979401	0.7671661390149652	-0.6575200603668507	2.332714046343217	0.6918691446950488	-0.5866355159349527	2.258082465770981	0.6069835585538218	-0.6507208584727783	2.232415337573925	0.3208959234251719	-0.6255046821451158	2.257949249112896	0.2342374102017478	-0.5617351148370281	2.219696239780554	0.1656984875429746	-0.6272689486314649	2.259323732085435	0.495416005253997	-0.6373707852859684	2.260184107124474	0.496982506717731	-0.5185110212520603	2.181791546396924	0.06658685697255889	-0.6234193898874179	2.187839483858144	0.06804805639844674	-0.5223534760848003	2.20925858902867	0.9247892951497063	-0.5832239526405149	2.262474687380009	0.4942578504217219	-0.5755541574655751	2.188652141750645	1.161289192136791	-0.7567050832339306	2.169967547983492	0.05754218324699317	-0.5651902949438592	2.266803598370063	1.453622783770938	-0.7006367206700326	
170	2.255	2.303353841422203	1.458861322384935	-0.5036946088781515	2.191414560588026	1.541640847336497	-0.5101215925573162	2.264463786012979	1.516768339452844	-0.3568296673432799	2.303285993326071	1.452321125866129	-0.3077625200717756	2.203919585801517	1.474314719271114	-0.3123597915245279	2.187870341207165	1.178287613239819	-0.2273357655999714	2.171287222085977	1.164024889316046	-0.3177188782891394	2.240914263605603	1.414775578558644	-0.2818507452933456	2.194285258488498	1.26222692871063	-0.260682242036396	2.253514300591838	1.322254019913388	-0.2684660585005135	2.228264049048278	1.087324864020804	-0.2777423035429494	2.314727319433214	0.9315511090528632	-0.2702751792357933	2.258842300258049	0.9057954391192933	-0.2538869945265451	2.277185537750466	1.007412133921052	-0.3634129619793152	2.115098235853615	1.043789171054432	-0.4600341971910707	1.969976768480982	0.2852354081474532	-0.3745844608269703	2.143189762358439	0.09434791348097818	-0.4260917963117296	2.07156721955588	0.1103081035526152	-0.3277124620355657	2.278554703947415	0.7871795375625793	-0.3314804476720665	2.381424895080562	0.7282028227279925	-0.3921397490883692	2.32802879051766	0.6348896450120637	-0.3191748701156518	2.234491550656137	0.397901183363371	-0.3281842212212893	2.198260843556511	0.3144700476636071	-0.3910715627626818	2.126155169182822	0.2860992206680338	-0.3243525406422608	2.357756483759451	0.5265229189680876	-0.319207832178476	2.362866789701994	0.514920924083057	-0.4374030781323694	2.03389203048037	0.2335916511369988	-0.3266259908997129	2.038012393746176	0.2304445164696797	-0.4277504178894305	2.203693028008214	0.9202500498240348	-0.4242945494201148	2.367050023409958	0.512515742613938	-0.3805744041514514	2.184297899199033	1.165156614504336	-0.2786776590436885	2.018163904697279	0.2338626252724149	-0.3846328283552919	2.256737799721194	1.462624024696694	-0.3099161118838175	2.276864887659155	1.510339304510398	-0.6556265764567573	2.319502818555687	1.443913926326007	-0.6984969396817076	2.212187098429168	1.467667007203392	-0.70346199285068	2.209399011465516	1.176326275958997	-0.8062297054623523	2.175585838324567	1.159900304652949	-0.7211745068552887	2.260762929695023	1.408119278311706	-0.7331143827218491	2.212821520553291	1.258726281583987	-0.768846917434901	2.27190911414548	1.315595294521098	-0.7477165942822925	2.239879590098732	1.084091128141586	-0.7515376639216192	2.326873931576691	0.9285298600282739	-0.7460792555745179	2.274754625615082	0.902949589079126	-0.7722381963835109	2.29572611537434	1.015684047696512	-0.6277971451595808	2.121592864645138	1.046686761974033	-0.5526460436469802	2.099249810010181	0.05825786227853819	-0.5716534905484275	2.359083806154358	0.05159902428186709	-0.5324650126364584	2.29358380443153	0.01220132986655112	-0.6284888699132589	2.25281401194685	0.767177252229216	-0.6574990662361625	2.335871519461496	0.6910309874518573	-0.5864830344498455	2.260444525722006	0.6069084263458555	-0.6506432246757963	2.233063234708705	0.3209424758929333	-0.62546535493558	2.258452012098075	0.2342056643244657	-0.5617443084215417	2.220027932413581	0.1657719535726205	-0.6272880140471382	2.260506494029368	0.495337882511166	-0.6372606220206201	2.261226738777271	0.4969298958237048	-0.5184002652175387	2.181923791212044	0.06673594808749439	-0.6234612349575144	2.188023845389328	0.06814269374673054	-0.5223976807466141	2.214843584017839	0.9252248914784442	-0.5832987995797496	2.263499101753942	0.4942221149440922	-0.5754573371185561	2.195727457565924	1.161698136953256	-0.7570333473117941	2.170109762968889	0.05769102718088076	-0.5652301547537966	2.272954624950809	1.454216825156573	-0.7006505314937493	
171	2.26	2.308978341522825	1.459345772168045	-0.5036114853657229	2.19707147417745	1.542146921721786	-0.5103182832316764	2.269711282793147	1.517232202840076	-0.3568387721992459	2.308392111878793	1.452768663858777	-0.3076814974134164	2.20904218775507	1.474781246011276	-0.3125368865430409	2.190916106256087	1.179358839994056	-0.2270124762390242	2.174870610553467	1.164915975537581	-0.3174639987626681	2.245584180745428	1.415399924374363	-0.2818586845967103	2.198002859950788	1.263163710305574	-0.2605604861695683	2.257601415605288	1.322853089062992	-0.2681175446542938	2.231322371401219	1.088121497707629	-0.2769251107998296	2.317229683056362	0.9320889720578167	-0.26850474552177	2.261159123825347	0.9065577219067857	-0.2524016354728797	2.283258434220815	1.008376787589228	-0.3638445548135959	2.120834084850275	1.044280694047073	-0.4600759716860116	1.984315268504729	0.2803557334673676	-0.3756797562362644	2.162016004865627	0.09342984055302109	-0.4264236359829268	2.089738024495596	0.1078532643102443	-0.3282866494895697	2.28573502348327	0.7886369046803926	-0.3313743295006197	2.389454784823888	0.7308516214731933	-0.3917328592778879	2.336838260077456	0.636888588150053	-0.3190361167527733	2.24683772591283	0.3980334247043667	-0.3284207025307477	2.212311164944381	0.3139732597735612	-0.3914289680737132	2.140550642670006	0.2842708793956915	-0.324917645302326	2.36775571112596	0.5288552851674044	-0.3190646261982816	2.373398305738409	0.5174212214682785	-0.4372520239681111	2.049268316656705	0.2300881227017225	-0.327460484660394	2.053726124163166	0.2270466358925235	-0.4285738314266838	2.209733120196974	0.9209635650490257	-0.4243251492592104	2.377426191423887	0.5150647168645108	-0.3804140337307907	2.187622122192272	1.166094653174169	-0.2783387512750443	2.033698930034223	0.2300890204010078	-0.3855107625117754	2.261851639923035	1.463080457968115	-0.309956004451189	2.282899891012194	1.510857216104992	-0.6556031155628234	2.325638753396007	1.444432142743667	-0.69837333104271	2.218340835342387	1.468205731468365	-0.7036171513027045	2.216598978892728	1.176714369278224	-0.8064912698557657	2.182520055376508	1.160194385739979	-0.721560432481078	2.267135614845244	1.408621401095489	-0.733161361391842	2.219686553998329	1.25911724828213	-0.7690856586724871	2.278559256377798	1.316126827560928	-0.7477354434397666	2.24786671333761	1.08499291884771	-0.7514198104663803	2.336567655746744	0.9304330206589285	-0.7450559676419255	2.284760455247876	0.9041409438600208	-0.7711290030246813	2.301023221307088	1.016105909920697	-0.6282984201659412	2.12705695988828	1.046988149092192	-0.5527122272973544	2.099391795024334	0.0584871066635385	-0.5716771776285922	2.35923121585405	0.0515343354628969	-0.5325758115107199	2.29365410458658	0.01220677031872411	-0.628575784504951	2.256836731845179	0.7671566596811641	-0.6574794471372892	2.339007014186697	0.6901712532726461	-0.5863361279513329	2.262791376539034	0.606819131041589	-0.6505698183246816	2.233701579526102	0.3209889552274037	-0.6254307164192476	2.258950864847337	0.2341747499591085	-0.5617596584601069	2.220353682408049	0.1658456957748875	-0.6273108436213264	2.261675974789395	0.4952578335241454	-0.6371565070024494	2.262260766765856	0.4968764958589125	-0.5182957665166595	2.182052817056074	0.06688481736276236	-0.6235044733624286	2.188210807928374	0.06823713238259899	-0.5224436897885866	2.220417105206669	0.9256119645331562	-0.5833713072265958	2.264512654769385	0.4941862418342131	-0.5753672096216355	2.20278612803265	1.162046181042027	-0.7573463322012788	2.170252411409268	0.05783933647036904	-0.5652707180204884	2.27909828144025	1.454743936853005	-0.7006478380804827	
